<?xml version="1.0" standalone="no"?>
<!DOCTYPE svg PUBLIC "-//W3C//DTD SVG 20010904//EN"
 "http://www.w3.org/TR/2001/REC-SVG-20010904/DTD/svg10.dtd">
<svg version="1.0" xmlns="http://www.w3.org/2000/svg"
 width="1200.000000pt" height="1200.000000pt" viewBox="0 0 1200.000000 1200.000000"
 preserveAspectRatio="xMidYMid meet">
<metadata>
Created by potrace 1.11, written by Peter Selinger 2001-2013
</metadata>
<g transform="translate(0.000000,1200.000000) scale(0.100000,-0.100000)"
fill="#000000" stroke="none">
<path d="M5180 9965 l-335 -335 1731 -1731 1732 -1732 336 339 337 338 -1728
1728 c-950 950 -1730 1728 -1733 1728 -3 0 -156 -151 -340 -335z"/>
<path d="M4215 9000 l-340 -340 133 -133 c72 -73 132 -135 132 -139 0 -3 -30
-35 -67 -72 l-68 -65 1732 -1733 1733 -1733 337 337 338 338 -135 135 -135
135 73 73 72 72 -1733 1733 -1732 1732 -340 -340z"/>
<path d="M3235 8020 l-340 -340 135 -135 135 -135 -73 -73 -72 -72 1733 -1733
1732 -1732 340 340 340 340 -135 135 -135 135 73 73 72 72 -1733 1733 -1732
1732 -340 -340z"/>
<path d="M1690 2565 l0 -405 50 0 50 0 0 220 0 221 25 24 c20 21 34 25 87 25
111 0 108 8 108 -261 l0 -229 56 0 55 0 -3 238 c-3 272 -8 289 -81 323 -47 21
-194 27 -228 9 -18 -10 -19 -6 -19 115 l0 125 -50 0 -50 0 0 -405z"/>
<path d="M10520 2565 l0 -405 50 0 50 0 0 118 c0 86 4 123 14 138 8 10 16 17
18 14 3 -3 40 -64 84 -137 l79 -132 64 -1 c47 0 62 3 58 13 -3 6 -50 84 -106
172 l-100 159 22 28 c12 15 57 68 100 118 l78 90 -68 -1 -68 0 -85 -101 -85
-101 -3 216 -2 217 -50 0 -50 0 0 -405z"/>
<path d="M5600 2810 l0 -70 -55 0 -55 0 0 -45 0 -45 55 0 55 0 0 -190 c0 -208
6 -240 55 -278 24 -19 40 -22 126 -22 l99 0 0 45 0 45 -69 0 c-109 0 -101 -16
-101 206 l0 194 85 0 85 0 0 45 0 45 -85 0 -85 0 0 70 0 70 -55 0 -55 0 0 -70z"/>
<path d="M1080 2695 l0 -45 110 0 c104 0 112 -1 135 -25 18 -18 25 -35 25 -65
l0 -40 -104 0 c-90 0 -107 -3 -136 -23 -55 -36 -74 -79 -74 -166 1 -140 38
-171 205 -171 81 0 106 3 121 17 17 15 19 15 36 0 12 -11 36 -17 65 -17 l47 0
0 45 c0 38 -3 45 -20 45 -34 0 -40 32 -40 207 0 199 -8 224 -80 261 -39 19
-60 22 -167 22 l-123 0 0 -45z m270 -336 c0 -104 -5 -109 -100 -109 -98 0
-110 10 -110 86 0 81 17 94 125 94 l85 0 0 -71z"/>
<path d="M2340 2695 l0 -45 110 0 c104 0 112 -1 135 -25 18 -18 25 -35 25 -65
l0 -40 -104 0 c-90 0 -107 -3 -136 -23 -55 -36 -74 -79 -74 -166 1 -140 38
-171 205 -171 81 0 106 3 121 17 17 15 19 15 36 0 12 -11 36 -17 65 -17 l47 0
0 45 c0 38 -3 45 -20 45 -34 0 -40 32 -40 207 0 199 -8 224 -80 261 -39 19
-60 22 -167 22 l-123 0 0 -45z m270 -336 c0 -104 -5 -109 -100 -109 -98 0
-110 10 -110 86 0 81 17 94 125 94 l85 0 0 -71z"/>
<path d="M3660 2718 c-77 -40 -85 -64 -85 -268 0 -204 8 -228 85 -267 64 -33
206 -33 270 0 72 37 80 62 80 267 0 205 -8 230 -80 268 -36 18 -61 22 -135 22
-74 0 -99 -4 -135 -22z m225 -93 c24 -23 25 -28 25 -175 0 -147 -1 -152 -25
-175 -20 -21 -34 -25 -85 -25 -60 0 -97 11 -112 34 -4 6 -8 81 -8 166 0 85 4
160 8 166 15 23 49 33 110 34 54 0 67 -4 87 -25z"/>
<path d="M4220 2695 l0 -45 45 0 45 0 0 -200 0 -200 -45 0 -45 0 0 -45 0 -45
160 0 160 0 0 45 0 45 -66 0 -65 0 3 181 c3 176 4 181 27 200 18 15 39 19 102
19 l79 0 0 45 0 45 -86 0 c-47 0 -94 -5 -105 -10 -13 -7 -19 -7 -19 0 0 6 -36
10 -95 10 l-95 0 0 -45z"/>
<path d="M4931 2722 c-71 -36 -76 -51 -79 -260 -3 -219 3 -242 78 -279 39 -20
60 -23 167 -23 l123 0 0 45 0 45 -110 0 c-104 0 -112 1 -135 25 -21 20 -25 34
-25 80 l0 55 155 0 155 0 0 103 c0 87 -4 110 -22 147 -32 64 -70 80 -183 80
-66 0 -99 -5 -124 -18z m208 -98 c15 -19 21 -41 21 -75 l0 -49 -105 0 -105 0
0 55 c0 77 19 95 104 95 58 0 67 -3 85 -26z"/>
<path d="M6120 2695 l0 -45 110 0 c104 0 112 -1 135 -25 18 -18 25 -35 25 -65
l0 -40 -104 0 c-90 0 -107 -3 -136 -23 -55 -36 -74 -79 -74 -166 1 -140 38
-171 205 -171 81 0 106 3 121 17 17 15 19 15 36 0 12 -11 36 -17 65 -17 l47 0
0 45 c0 38 -3 45 -20 45 -34 0 -40 32 -40 207 0 199 -8 224 -80 261 -39 19
-60 22 -167 22 l-123 0 0 -45z m270 -336 c0 -104 -5 -109 -100 -109 -98 0
-110 10 -110 86 0 81 17 94 125 94 l85 0 0 -71z"/>
<path d="M6680 2450 l0 -290 50 0 50 0 2 237 3 237 27 15 c21 12 31 13 52 3
l26 -12 0 -240 0 -240 49 0 50 0 3 231 c3 229 3 231 27 250 28 23 54 24 75 3
14 -13 16 -50 16 -250 l0 -234 50 0 50 0 0 240 c0 267 -5 297 -59 324 -45 24
-132 21 -165 -5 l-26 -20 -26 20 c-29 23 -110 29 -145 11 -13 -7 -19 -7 -19 0
0 5 -20 10 -45 10 l-45 0 0 -290z"/>
<path d="M7380 2695 l0 -45 110 0 c104 0 112 -1 135 -25 18 -18 25 -35 25 -65
l0 -40 -104 0 c-90 0 -107 -3 -136 -23 -55 -36 -74 -79 -74 -166 1 -140 38
-171 205 -171 81 0 106 3 121 17 17 15 19 15 36 0 12 -11 36 -17 65 -17 l47 0
0 45 c0 38 -3 45 -20 45 -34 0 -40 32 -40 207 0 199 -8 224 -80 261 -39 19
-60 22 -167 22 l-123 0 0 -45z m270 -336 c0 -104 -5 -109 -100 -109 -98 0
-110 10 -110 86 0 81 17 94 125 94 l85 0 0 -71z"/>
<path d="M8560 2730 c0 -7 23 -135 50 -285 28 -150 50 -276 50 -279 0 -3 26
-6 59 -6 l58 0 30 137 29 137 24 -124 c12 -69 25 -131 27 -137 6 -14 123 -19
123 -5 0 4 23 133 50 286 28 154 50 281 50 283 0 2 -22 3 -50 3 -27 0 -50 -2
-50 -4 0 -13 -61 -420 -63 -422 -1 -2 -16 65 -31 149 -16 84 -31 158 -33 165
-3 7 -22 12 -44 12 -32 0 -40 -4 -44 -22 -10 -47 -65 -298 -66 -305 -1 -5 -15
89 -33 207 l-31 215 -53 3 c-34 2 -52 -1 -52 -8z"/>
<path d="M9330 2718 c-77 -40 -85 -64 -85 -268 0 -204 8 -228 85 -267 64 -33
206 -33 270 0 72 37 80 62 80 267 0 205 -8 230 -80 268 -36 18 -61 22 -135 22
-74 0 -99 -4 -135 -22z m225 -93 c24 -23 25 -28 25 -175 0 -147 -1 -152 -25
-175 -20 -21 -34 -25 -85 -25 -60 0 -97 11 -112 34 -4 6 -8 81 -8 166 0 85 4
160 8 166 15 23 49 33 110 34 54 0 67 -4 87 -25z"/>
<path d="M9890 2695 l0 -45 45 0 45 0 0 -200 0 -200 -45 0 -45 0 0 -45 0 -45
160 0 160 0 0 45 0 45 -66 0 -65 0 3 181 c3 176 4 181 27 200 18 15 39 19 102
19 l79 0 0 45 0 45 -86 0 c-47 0 -94 -5 -105 -10 -13 -7 -19 -7 -19 0 0 6 -36
10 -95 10 l-95 0 0 -45z"/>
<path d="M2970 2525 l0 -45 195 0 195 0 0 45 0 45 -195 0 -195 0 0 -45z"/>
<path d="M8140 2220 l0 -60 65 0 65 0 0 60 0 60 -65 0 -65 0 0 -60z"/>
</g>
</svg>
